<svg width="407" height="614" viewBox="0 0 407 614" fill="none" xmlns="http://www.w3.org/2000/svg">
<path d="M699.953 490.535C706.768 568.864 633.492 630.037 557.639 609.345L151.081 498.436C107.372 486.512 75.0107 449.635 68.865 404.748L1.52319 -87.1027C-8.72125 -161.926 55.9036 -225.547 130.558 -214.133L557.702 -148.824C609.228 -140.946 648.68 -98.8447 653.198 -46.9156L699.953 490.535Z" fill="url(#paint0_linear_0_22)"/>
<path d="M699.953 490.535C706.768 568.864 633.492 630.037 557.639 609.345L151.081 498.436C107.372 486.512 75.0107 449.635 68.865 404.748L1.52319 -87.1027C-8.72125 -161.926 55.9036 -225.547 130.558 -214.133L557.702 -148.824C609.228 -140.946 648.68 -98.8447 653.198 -46.9156L699.953 490.535Z" stroke="black"/>
<defs>
<linearGradient id="paint0_linear_0_22" x1="347.5" y1="652" x2="347.5" y2="-237" gradientUnits="userSpaceOnUse">
<stop stop-color="#FF0000"/>
<stop offset="1" stop-color="#0235B9" stop-opacity="0"/>
</linearGradient>
</defs>
</svg>
