<svg width="439" height="612" viewBox="0 0 439 612" fill="none" xmlns="http://www.w3.org/2000/svg">
<path d="M-260.953 123.465C-267.768 45.136 -194.492 -16.0375 -118.639 4.65532L287.919 115.564C331.628 127.488 363.989 164.365 370.135 209.252L437.477 701.103C447.721 775.926 383.096 839.547 308.442 828.133L-118.702 762.824C-170.228 754.946 -209.68 712.845 -214.198 660.916L-260.953 123.465Z" fill="url(#paint0_linear_0_23)"/>
<path d="M-260.953 123.465C-267.768 45.136 -194.492 -16.0375 -118.639 4.65532L287.919 115.564C331.628 127.488 363.989 164.365 370.135 209.252L437.477 701.103C447.721 775.926 383.096 839.547 308.442 828.133L-118.702 762.824C-170.228 754.946 -209.68 712.845 -214.198 660.916L-260.953 123.465Z" stroke="black"/>
<defs>
<linearGradient id="paint0_linear_0_23" x1="91.5" y1="-38" x2="91.5" y2="851" gradientUnits="userSpaceOnUse">
<stop stop-color="#000AFF"/>
<stop offset="1" stop-color="#0235B9" stop-opacity="0"/>
</linearGradient>
</defs>
</svg>
